<?xml version="1.0" encoding="UTF-8" standalone="no"?>
<!DOCTYPE svg PUBLIC "-//W3C//DTD SVG 1.1//EN" "http://www.w3.org/Graphics/SVG/1.1/DTD/svg11.dtd">
<svg width="100%" height="100%" viewBox="0 0 480 60" version="1.1" xmlns="http://www.w3.org/2000/svg" xmlns:xlink="http://www.w3.org/1999/xlink" xml:space="preserve" xmlns:serif="http://www.serif.com/" style="fill-rule:evenodd;clip-rule:evenodd;stroke-linejoin:round;stroke-miterlimit:2;">
    <g transform="matrix(1,0,0,1,-251,-862)">
        <g transform="matrix(1,0,0,1,1.26218e-29,1210.9)">
            <g id="next-inline-white-text" serif:id="next inline white text" transform="matrix(0.999927,0,0,0.999927,-21.0448,44.4021)">
                <g transform="matrix(0.441318,0,0,0.441318,71.6913,-574.433)">
                    <g>
                        <g id="Nextjs-logo.svg" transform="matrix(0.588729,0,0,0.588729,570.36,484.716)">
                            <g transform="matrix(1,0,0,1,-197,-40)">
                                <path d="M261.919,0.033L330.547,0.033L330.547,12.7L303.323,12.7L303.323,79.339L289.71,79.339L289.71,12.7L261.919,12.7L261.919,0.033Z" style="fill:white;fill-rule:nonzero;"/>
                                <path d="M149.052,0.033L149.052,12.7L94.042,12.7L94.042,33.077L138.281,33.077L138.281,45.744L94.042,45.744L94.042,66.672L149.052,66.672L149.052,79.339L80.43,79.339L80.43,12.7L80.424,12.7L80.424,0.033L149.052,0.033Z" style="fill:white;fill-rule:nonzero;"/>
                                <path d="M183.32,0.066L165.506,0.066L229.312,79.372L247.178,79.372L215.271,39.746L247.127,0.127L229.312,0.154L206.352,28.67L183.32,0.066Z" style="fill:white;fill-rule:nonzero;"/>
                                <path d="M201.6,56.715L192.679,45.623L165.455,79.433L183.32,79.433L201.6,56.715Z" style="fill:white;fill-rule:nonzero;"/>
                                <path d="M80.907,79.339L17.015,0L0,0L0,79.306L13.612,79.306L13.612,16.952L63.807,79.339L80.907,79.339Z" style="fill:white;"/>
                                <path d="M333.607,78.855C332.61,78.855 331.762,78.509 331.052,77.819C330.342,77.128 329.991,76.292 330,75.301C329.991,74.338 330.342,73.511 331.052,72.82C331.762,72.129 332.61,71.784 333.607,71.784C334.566,71.784 335.405,72.129 336.115,72.82C336.835,73.511 337.194,74.338 337.204,75.301C337.194,75.955 337.028,76.555 336.696,77.091C336.355,77.637 335.922,78.064 335.377,78.373C334.842,78.691 334.252,78.855 333.607,78.855Z" style="fill:white;fill-rule:nonzero;"/>
                                <path d="M356.84,45.445L362.872,45.445L362.872,68.685C362.863,70.82 362.401,72.647 361.498,74.183C360.585,75.719 359.321,76.891 357.698,77.719C356.084,78.536 354.193,78.955 352.044,78.955C350.079,78.955 348.318,78.6 346.75,77.909C345.182,77.219 343.937,76.183 343.024,74.819C342.101,73.456 341.649,71.757 341.649,69.721L347.691,69.721C347.7,70.611 347.903,71.384 348.29,72.029C348.677,72.674 349.212,73.165 349.895,73.51C350.586,73.856 351.38,74.029 352.274,74.029C353.243,74.029 354.073,73.829 354.746,73.42C355.419,73.02 355.936,72.42 356.296,71.62C356.646,70.83 356.831,69.848 356.84,68.685L356.84,45.445Z" style="fill:white;fill-rule:nonzero;"/>
                                <path d="M387.691,54.534C387.544,53.125 386.898,52.025 385.773,51.244C384.638,50.453 383.172,50.062 381.373,50.062C380.11,50.062 379.022,50.253 378.118,50.626C377.214,51.008 376.513,51.516 376.033,52.162C375.554,52.807 375.314,53.543 375.295,54.37C375.295,55.061 375.461,55.661 375.784,56.161C376.107,56.67 376.54,57.097 377.103,57.442C377.656,57.797 378.274,58.087 378.948,58.324C379.63,58.56 380.313,58.76 380.995,58.924L384.14,59.696C385.404,59.987 386.631,60.378 387.802,60.878C388.973,61.368 390.034,61.996 390.965,62.75C391.897,63.504 392.635,64.413 393.179,65.476C393.723,66.54 394,67.785 394,69.221C394,71.157 393.502,72.856 392.496,74.329C391.491,75.792 390.043,76.937 388.143,77.764C386.252,78.582 383.965,79 381.272,79C378.671,79 376.402,78.6 374.493,77.8C372.575,77.01 371.08,75.846 370.001,74.319C368.922,72.793 368.341,70.929 368.258,68.739L374.235,68.739C374.318,69.884 374.687,70.839 375.314,71.611C375.95,72.375 376.78,72.938 377.795,73.32C378.819,73.692 379.962,73.883 381.226,73.883C382.545,73.883 383.707,73.683 384.712,73.292C385.708,72.902 386.492,72.356 387.055,71.647C387.627,70.948 387.913,70.121 387.922,69.175C387.913,68.312 387.654,67.594 387.156,67.03C386.649,66.467 385.948,65.994 385.053,65.613C384.15,65.231 383.098,64.886 381.899,64.586L378.081,63.622C375.323,62.923 373.137,61.859 371.541,60.432C369.937,59.005 369.143,57.115 369.143,54.743C369.143,52.798 369.678,51.089 370.758,49.626C371.827,48.163 373.294,47.027 375.148,46.218C377.011,45.4 379.114,45 381.456,45C383.836,45 385.92,45.4 387.719,46.218C389.517,47.027 390.929,48.154 391.952,49.59C392.976,51.026 393.511,52.671 393.539,54.534L387.691,54.534Z" style="fill:white;fill-rule:nonzero;"/>
                            </g>
                        </g>
                        <g transform="matrix(1,0,0,1,96.1012,330.247)">
                            <path d="M1018.84,178.002L999.658,178.002L994.487,194.241L975.245,194.241L1002.81,114.143L1023.58,114.143L1051.05,194.241L1031.8,194.241L1031.14,192.134L1031.29,192.089L1022.4,164.074L1022.41,164.074L1013.28,134.832L1004.06,164.074L1014.42,164.074L1018.84,178.002ZM980.101,139.339C980.101,142.306 979.703,145.205 978.909,148.037C978.115,150.869 976.834,153.508 975.065,155.954C973.297,158.401 970.907,160.385 967.894,161.907C964.882,163.429 961.338,164.19 957.262,164.19L944.943,164.19L944.943,194.241L926.15,194.241L926.15,114.143L957.262,114.143C961.338,114.143 964.882,114.913 967.894,116.454C970.907,117.995 973.297,119.999 975.065,122.465C976.834,124.93 978.115,127.608 978.909,130.497C979.703,133.387 980.101,136.334 980.101,139.339ZM960.948,139.455C960.948,135.641 960.072,133.031 958.318,131.624C956.565,130.218 953.425,129.515 948.899,129.515L944.943,129.515L944.943,148.817L948.989,148.817C952.106,148.817 954.504,148.567 956.183,148.066C957.861,147.565 959.075,146.64 959.824,145.292C960.574,143.943 960.948,141.998 960.948,139.455ZM1109.85,133.618L1087.01,133.618L1087.01,194.241L1068.27,194.241L1068.27,133.618L1045.43,133.618L1045.43,114.143L1109.85,114.143L1109.85,133.618ZM1179.27,133.618L1156.43,133.618L1156.43,194.241L1137.68,194.241L1137.68,133.618L1114.84,133.618L1114.84,114.143L1179.27,114.143L1179.27,133.618ZM1237.22,194.241L1190.24,194.241L1190.24,114.143L1236.45,114.143L1236.45,130.209L1209.03,130.209L1209.03,144.887L1235.2,144.887L1235.2,161.011L1209.03,161.011L1209.03,178.117L1237.22,178.117L1237.22,194.241ZM1310.14,194.241L1289.96,194.241L1285.06,180.024C1283.26,174.823 1281.64,171.018 1280.2,168.611C1278.76,166.203 1277.36,164.661 1276,163.987C1274.63,163.313 1272.87,162.976 1270.71,162.976L1268.6,162.976L1268.6,194.241L1249.81,194.241L1249.81,114.143L1281.77,114.143C1286.93,114.143 1291.15,115.491 1294.45,118.188C1297.75,120.885 1300.12,124.16 1301.58,128.012C1303.03,131.865 1303.76,135.525 1303.76,138.993C1303.76,143.038 1303.15,146.457 1301.94,149.251C1300.72,152.044 1299.44,154.076 1298.09,155.348C1296.75,156.619 1295.23,157.833 1293.55,158.988C1295.56,160.491 1297.22,162.273 1298.52,164.334C1299.82,166.395 1301.6,170.566 1303.85,176.846L1310.14,194.241ZM1284.61,139.455C1284.61,135.756 1283.66,133.175 1281.77,131.711C1279.88,130.247 1276.81,129.515 1272.56,129.515L1268.6,129.515L1268.6,148.817L1272.65,148.817C1277.23,148.817 1280.37,148.172 1282.07,146.881C1283.76,145.591 1284.61,143.115 1284.61,139.455ZM1386.35,194.241L1369.62,194.241L1337.3,149.626L1337.3,194.241L1318.68,194.241L1318.68,114.143L1335.36,114.143L1367.6,158.526L1367.6,114.143L1386.35,114.143L1386.35,194.241ZM1445.56,170.951C1445.56,175.96 1444.56,180.294 1442.57,183.954C1440.58,187.614 1437.8,190.417 1434.23,192.363C1430.66,194.308 1426.57,195.281 1421.95,195.281C1420.67,195.281 1419.09,195.175 1417.21,194.963C1415.34,194.751 1412.85,194.164 1409.75,193.2C1406.65,192.237 1403.42,190.812 1400.06,188.924L1400.06,169.275C1403.21,171.779 1406.3,173.86 1409.34,175.517C1412.39,177.173 1415.65,178.002 1419.12,178.002C1422.33,178.002 1424.4,177.318 1425.35,175.95C1426.29,174.582 1426.77,173.301 1426.77,172.107C1426.77,169.949 1425.96,168.129 1424.34,166.646C1422.72,165.162 1420.37,163.631 1417.28,162.051C1413.86,160.202 1410.87,158.189 1408.29,156.012C1405.71,153.835 1403.6,151.11 1401.97,147.835C1400.34,144.56 1399.52,140.688 1399.52,136.219C1399.52,131.904 1400.35,128.003 1401.99,124.516C1403.64,121.029 1406.16,118.246 1409.55,116.165C1412.93,114.085 1417.07,113.045 1421.95,113.045C1425.43,113.045 1428.65,113.478 1431.6,114.345C1434.55,115.212 1436.99,116.185 1438.9,117.263C1440.82,118.342 1442.14,119.19 1442.86,119.806L1442.86,138.588C1440.31,136.238 1437.47,134.138 1434.34,132.289C1431.21,130.44 1427.86,129.515 1424.29,129.515C1421.95,129.515 1420.26,130.093 1419.21,131.249C1418.16,132.405 1417.64,133.83 1417.64,135.525C1417.64,137.105 1418.16,138.473 1419.21,139.628C1420.26,140.784 1422.13,142.19 1424.83,143.847C1429.63,146.737 1433.46,149.337 1436.34,151.649C1439.22,153.961 1441.47,156.629 1443.11,159.653C1444.74,162.677 1445.56,166.443 1445.56,170.951Z" style="fill:white;"/>
                        </g>
                    </g>
                </g>
                <g transform="matrix(0.278762,0,0,0.278762,209.322,-498.089)">
                    <g>
                        <g transform="matrix(1,0,0,1,-62.7647,-16.3904)">
                            <g transform="matrix(0.996577,0.0115493,0.0115882,-0.999933,225.854,1057.39)">
                                <path d="M588.021,604.037L693.597,544.902L797.77,606.46L692.194,665.594L588.021,604.037Z" style="fill:rgb(65,227,251);"/>
                            </g>
                            <g transform="matrix(0.999933,0.0115882,0.0115684,-0.998222,223.181,1051.58)">
                                <path d="M588.704,606.561L693.917,547.32L797.74,608.982L692.518,668.218L588.704,606.561Z" style="fill:white;"/>
                            </g>
                        </g>
                        <g transform="matrix(1,0,0,1,-178.192,70.0932)">
                            <g transform="matrix(0.996577,0.0115493,0.0115882,-0.999933,225.854,1057.39)">
                                <path d="M588.021,604.037L693.597,544.902L797.77,606.46L692.194,665.594L588.021,604.037Z" style="fill:rgb(65,227,251);"/>
                            </g>
                            <g transform="matrix(0.999933,0.0115882,0.0115684,-0.998222,223.181,1051.58)">
                                <path d="M588.704,606.561L693.917,547.32L797.74,608.982L692.518,668.218L588.704,606.561Z" style="fill:white;"/>
                            </g>
                        </g>
                        <g transform="matrix(1,0,0,1,52.6534,70.0932)">
                            <g transform="matrix(0.996577,0.0115493,0.0115882,-0.999933,225.854,1057.39)">
                                <path d="M588.021,604.037L693.597,544.902L797.77,606.46L692.194,665.594L588.021,604.037Z" style="fill:rgb(65,227,251);"/>
                            </g>
                            <g transform="matrix(0.999933,0.0115882,0.0115684,-0.998222,223.181,1051.58)">
                                <path d="M588.704,606.561L693.917,547.32L797.74,608.982L692.518,668.218L588.704,606.561Z" style="fill:white;"/>
                            </g>
                        </g>
                    </g>
                </g>
            </g>
        </g>
    </g>
</svg>
